<?xml version="1.0" encoding="UTF-8"?>
<svg id="Layer_1" xmlns="http://www.w3.org/2000/svg" version="1.1" viewBox="0 0 311 120">
  <!-- Generator: Adobe Illustrator 30.2.1, SVG Export Plug-In . SVG Version: 2.1.1 Build 1)  -->
  <defs>
    <style>
      .st1 {
        fill: #c9ddd4;
      }
    </style>
  </defs>
<path class="st1" d="M278.34,104.05c-84.47-.94-170.01,1.85-254.21-1-7.1-19.51,13.87-24.75,34.46-24.75,4.18,0,4.27-5.95,7.13-10.63,7.78-12.75,25-21.22,41.8-16.44,4.35,1.24,5.1,3.7,7.32-.99,7.6-16.09,23.95-19.22,39.23-13.19,6.16-7.9,15.35-15.59,25.3-16,6.17-.26,10.74-.75,15.42,0,3.57.57,10.01,2,10.01,2,13,4.41,23.14,16.21,26.61,28.93,12.3-8.74,28.06-1.21,32.5,12.64,7.75,2.49,17.56,3.1,21.67,11.67,5.58,8.77,2.21,22.9-7.24,27.76Z"/>
</svg>