<?xml version="1.0" encoding="UTF-8"?>
<svg id="Layer_1" xmlns="http://www.w3.org/2000/svg" version="1.1" viewBox="0 0 400 98">
  <!-- Generator: Adobe Illustrator 30.2.1, SVG Export Plug-In . SVG Version: 2.1.1 Build 1)  -->
  <defs>
    <style>
      .st0, .st1 {
        fill: #3c866b;
      }

      .st0, .st1, .st2, .st3, .st4 {
        stroke: #277359;
        stroke-miterlimit: 10;
      }

      .st0, .st2, .st3, .st4 {
        stroke-width: .5px;
      }

      .st1 {
        stroke-width: .25px;
      }

      .st2 {
        fill: #277359;
      }

      .st3 {
        fill: #62a589;
      }

      .st4 {
        fill: #67b998;
      }
    </style>
  </defs>
  <path class="st4" d="M50.99,54.01"/>
  <g>
    <g>
      <path class="st3" d="M263.63,43.84l-.3.68-8.62,19.58-5.06-13.59c.37-.35,13.98-6.67,13.98-6.67Z"/>
      <polygon class="st4" points="272.43 53.01 260.37 52.45 264.23 43.8 272.43 53.01"/>
    </g>
    <polygon class="st0" points="235.14 53.07 224.83 27.09 214.67 23.84 235.14 53.07"/>
    <polygon class="st3" points="219.74 16.75 244.67 32.31 244.45 32.95 236.59 55.65 219.74 16.75"/>
    <polygon class="st4" points="244.75 32.65 254.3 64.27 235.99 58.72 244.75 32.65"/>
    <g>
      <polygon class="st1" points="235.91 58.51 228.61 72.99 230.87 71.96 235.91 58.51"/>
      <polygon class="st3" points="236.03 58.72 254.36 64.83 226.79 83.1 236.03 58.72"/>
      <polygon class="st4" points="230.45 72.35 224.79 86.81 208.81 81.56 230.45 72.35"/>
    </g>
  </g>
  <g>
    <g>
      <path class="st3" d="M77.44,42l-.3.68-8.62,19.58-5.06-13.59c.37-.35,13.98-6.67,13.98-6.67h0Z"/>
      <polygon class="st4" points="86.24 51.17 74.19 50.62 78.05 41.96 86.24 51.17"/>
    </g>
    <polygon class="st0" points="48.95 51.23 38.65 25.25 28.48 22 48.95 51.23"/>
    <polygon class="st3" points="33.56 14.91 58.48 30.47 58.26 31.12 50.41 53.81 33.56 14.91"/>
    <polygon class="st4" points="58.57 30.81 68.11 62.44 49.8 56.89 58.57 30.81"/>
    <g>
      <polygon class="st1" points="49.53 56.68 42.22 71.15 44.48 70.12 49.53 56.68"/>
      <polygon class="st3" points="49.64 56.89 67.98 62.99 40.4 81.26 49.64 56.89"/>
      <polygon class="st4" points="44.06 70.51 38.4 84.97 22.43 79.73 44.06 70.51"/>
    </g>
  </g>
  <path class="st4" d="M148.57,110.37"/>
  <g>
    <g>
      <g>
        <polygon class="st4" points="184.04 52.3 171.98 51.75 175.84 43.09 184.04 52.3"/>
        <path class="st3" d="M175.23,43.13l-.3.68-8.62,19.58-5.06-13.59c.37-.35,13.98-6.67,13.98-6.67Z"/>
      </g>
      <g>
        <polygon class="st1" points="146.35 58.71 139.04 73.19 141.3 72.16 146.35 58.71"/>
        <polygon class="st3" points="146.47 58.92 164.8 65.03 137.22 83.3 146.47 58.92"/>
        <polygon class="st4" points="140.89 72.55 135.22 87.01 119.25 81.76 140.89 72.55"/>
      </g>
    </g>
    <polygon class="st4" points="146.89 58.56 161.04 50.05 166.43 65.06 146.89 58.56"/>
  </g>
  <g>
    <g>
      <path class="st3" d="M356.29,42.28l-.3.68-8.62,19.58-5.06-13.59c.37-.35,13.98-6.67,13.98-6.67h0Z"/>
      <polygon class="st4" points="365.1 51.44 353.04 50.89 356.91 42.23 365.1 51.44"/>
    </g>
    <polygon class="st1" points="328.47 56.77 321.15 71.24 323.42 70.22 328.47 56.77"/>
    <polygon class="st0" points="328.57 56.98 346.92 63.08 319.33 81.35 328.57 56.98"/>
    <polygon class="st4" points="323 70.6 317.33 85.06 301.36 79.82 323 70.6"/>
    <polygon class="st0" points="341.89 49.17 328.86 56.45 346.92 62.54 341.89 49.17"/>
    <polygon class="st2" points="347.22 62.37 334.44 70.1 340.54 77.17 346.28 84.32 347.22 62.37"/>
    <polyline class="st4" points="324.04 57.53 342.19 49.17 339.43 72.33"/>
    <polygon class="st4" points="339.76 72.85 323.64 81.17 324.15 57.96 339.76 72.85"/>
    <polygon class="st4" points="323.67 81.37 339.75 73.34 334.48 96.78 323.67 81.37"/>
  </g>
</svg>