<?xml version="1.0" encoding="UTF-8"?>
<svg id="Layer_1" xmlns="http://www.w3.org/2000/svg" version="1.1" viewBox="0 0 400 98">
  <!-- Generator: Adobe Illustrator 30.2.1, SVG Export Plug-In . SVG Version: 2.1.1 Build 1)  -->
  <defs>
    <style>
      .st0 {
        fill: #62a589;
      }

      .st0, .st1, .st2, .st3, .st4 {
        stroke: #277359;
        stroke-miterlimit: 10;
      }

      .st0, .st2, .st3, .st4 {
        stroke-width: .5px;
      }

      .st1 {
        stroke-width: .25px;
      }

      .st1, .st2 {
        fill: #3c866b;
      }

      .st3 {
        fill: #67b998;
      }

      .st4 {
        fill: #277359;
      }
    </style>
  </defs>
  <g>
    <polygon class="st3" points="86.46 49.94 74.4 49.39 78.26 40.73 86.46 49.94"/>
    <path class="st0" d="M77.65,40.77l-.3.68-8.62,19.58-5.06-13.59c.37-.35,13.98-6.67,13.98-6.67Z"/>
  </g>
  <g>
    <polygon class="st1" points="48.77 56.35 41.46 70.83 43.72 69.8 48.77 56.35"/>
    <polygon class="st0" points="48.89 56.56 67.22 62.67 39.64 80.94 48.89 56.56"/>
    <polygon class="st3" points="43.31 70.19 37.64 84.65 21.67 79.4 43.31 70.19"/>
  </g>
  <path class="st3" d="M50.99,54.01"/>
  <polygon class="st3" points="49.31 56.2 63.46 47.69 68.85 62.7 49.31 56.2"/>
  <g>
    <path class="st0" d="M175.39,42.49l-.3.68-8.62,19.58-5.06-13.59c.37-.35,13.98-6.67,13.98-6.67Z"/>
    <polygon class="st3" points="184.19 51.66 172.13 51.1 175.99 42.45 184.19 51.66"/>
  </g>
  <polygon class="st2" points="146.9 51.72 136.59 25.74 126.43 22.49 146.9 51.72"/>
  <polygon class="st0" points="131.5 15.4 156.43 30.96 156.21 31.6 148.35 54.3 131.5 15.4"/>
  <polygon class="st3" points="156.51 31.3 166.06 62.92 147.75 57.37 156.51 31.3"/>
  <g>
    <polygon class="st1" points="147.67 57.16 140.37 71.64 142.63 70.61 147.67 57.16"/>
    <polygon class="st0" points="147.79 57.37 166.12 63.48 138.55 81.75 147.79 57.37"/>
    <polygon class="st3" points="142.21 71 136.55 85.46 120.57 80.21 142.21 71"/>
  </g>
  <g>
    <g>
      <path class="st0" d="M355.44,42l-.3.68-8.62,19.58-5.06-13.59c.37-.35,13.98-6.67,13.98-6.67Z"/>
      <polygon class="st3" points="364.24 51.17 352.19 50.62 356.05 41.96 364.24 51.17"/>
    </g>
    <polygon class="st2" points="326.95 51.23 316.65 25.25 306.48 22 326.95 51.23"/>
    <polygon class="st0" points="311.56 14.91 336.48 30.47 336.26 31.12 328.41 53.81 311.56 14.91"/>
    <polygon class="st3" points="336.57 30.81 346.11 62.44 327.8 56.89 336.57 30.81"/>
    <g>
      <polygon class="st1" points="327.53 56.68 320.22 71.15 322.48 70.12 327.53 56.68"/>
      <polygon class="st0" points="327.64 56.89 345.98 62.99 318.4 81.26 327.64 56.89"/>
      <polygon class="st3" points="322.06 70.51 316.4 84.97 300.43 79.73 322.06 70.51"/>
    </g>
  </g>
  <g>
    <g>
      <path class="st0" d="M264.4,42.62l-.3.68-8.62,19.58-5.06-13.59c.37-.35,13.98-6.67,13.98-6.67Z"/>
      <polygon class="st3" points="273.2 51.78 261.15 51.23 265.01 42.57 273.2 51.78"/>
    </g>
    <polygon class="st1" points="236.57 57.11 229.26 71.58 231.52 70.56 236.57 57.11"/>
    <polygon class="st2" points="236.68 57.32 255.02 63.42 227.44 81.69 236.68 57.32"/>
    <polygon class="st3" points="231.1 70.94 225.44 85.4 209.47 80.16 231.1 70.94"/>
    <polygon class="st2" points="250 49.51 236.97 56.79 255.02 62.88 250 49.51"/>
    <polygon class="st4" points="255.32 62.71 242.55 70.44 248.65 77.51 254.39 84.66 255.32 62.71"/>
    <polyline class="st3" points="232.15 57.87 250.3 49.51 247.54 72.67"/>
    <polygon class="st3" points="247.87 73.19 231.75 81.51 232.26 58.3 247.87 73.19"/>
    <polygon class="st3" points="231.77 81.71 247.85 73.68 242.59 97.12 231.77 81.71"/>
  </g>
</svg>